<svg width="20" height="20" viewBox="0 0 20 20" fill="none" xmlns="http://www.w3.org/2000/svg">
<path d="M5.83337 14.1666V10.8333" stroke="#02022C" stroke-width="1.2" stroke-linecap="round"/>
<path d="M10 14.1667V5.83334" stroke="#02022C" stroke-width="1.2" stroke-linecap="round"/>
<path d="M14.1666 14.1667V9.16666" stroke="#02022C" stroke-width="1.2" stroke-linecap="round"/>
<path d="M2.08337 10C2.08337 6.26806 2.08337 4.40209 3.24274 3.24271C4.40212 2.08334 6.26809 2.08334 10 2.08334C13.732 2.08334 15.598 2.08334 16.7574 3.24271C17.9167 4.40209 17.9167 6.26806 17.9167 10C17.9167 13.7319 17.9167 15.5979 16.7574 16.7573C15.598 17.9167 13.732 17.9167 10 17.9167C6.26809 17.9167 4.40212 17.9167 3.24274 16.7573C2.08337 15.5979 2.08337 13.7319 2.08337 10Z" stroke="#02022C" stroke-width="1.2" stroke-linejoin="round"/>
</svg>
