<svg width="20" height="20" viewBox="0 0 20 20" fill="none" xmlns="http://www.w3.org/2000/svg">
<path d="M12.9167 18.3333V17.9167C12.9167 16.9962 13.6935 16.2504 14.5186 15.8425C15.3205 15.4462 15.9953 14.7926 16.0805 14.0261L16.25 12.5L17.9167 11.6667L15.8334 8.54166C15.8334 4.7447 12.7553 1.66666 8.95837 1.66666C5.16142 1.66666 2.08337 4.7447 2.08337 8.54166C2.08337 10.8649 3.23573 12.919 5.00004 14.1635M5.00004 14.1635V18.3333M5.00004 14.1635C5.62558 14.6047 6.32806 14.9442 7.08337 15.1579" stroke="#02022C" stroke-width="1.2" stroke-linecap="round" stroke-linejoin="round"/>
<path d="M9.42312 10L8.2059 6.23244C8.12937 5.99556 7.89457 5.83334 7.62825 5.83334C7.36192 5.83334 7.12712 5.99556 7.05059 6.23244L5.83337 10M11.6667 5.83334V10M6.28209 8.75001H8.97437" stroke="#02022C" stroke-width="1.2" stroke-linecap="round" stroke-linejoin="round"/>
</svg>
