<svg width="20" height="20" viewBox="0 0 20 20" fill="none" xmlns="http://www.w3.org/2000/svg">
<path d="M1.66663 15.8333V6.29085C1.66663 5.08763 1.66663 4.48602 1.86939 4.01373C2.12221 3.42488 2.5915 2.95558 3.18035 2.70277C3.65264 2.5 4.24833 2.5 5.45748 2.5H5.86922C6.37345 2.5 6.85058 2.72828 7.16697 3.12091L8.68121 5M8.68121 5H13.3333C14.5 5 15.0835 5 15.5291 5.22707C15.9211 5.42681 16.2398 5.74552 16.4395 6.13752C16.6666 6.58317 16.6666 7.16656 16.6666 8.33333V9.16667M8.68121 5H5.83329" stroke="#02022C" stroke-width="1.2" stroke-linecap="round" stroke-linejoin="round"/>
<path d="M2.63164 12.9287L2.88032 12.3097C3.49187 10.7874 3.79765 10.0263 4.43529 9.59649C5.07293 9.16666 5.89627 9.16666 7.54293 9.16666H14.2599C16.5003 9.16666 17.6205 9.16666 18.1185 9.89891C18.6164 10.6312 18.2004 11.6668 17.3683 13.738L17.1196 14.3569C16.508 15.8792 16.2023 16.6403 15.5646 17.0702C14.927 17.5 14.1036 17.5 12.457 17.5H5.74006C3.49963 17.5 2.37942 17.5 1.88148 16.7677C1.38353 16.0354 1.79957 14.9998 2.63164 12.9287Z" stroke="#02022C" stroke-width="1.2" stroke-linejoin="round"/>
</svg>
