<svg width="20" height="20" viewBox="0 0 20 20" fill="none" xmlns="http://www.w3.org/2000/svg">
<path d="M9.16663 12.5V7.50001C9.16663 5.94232 9.16663 5.16347 9.50154 4.58334C9.72096 4.20329 10.0365 3.8877 10.4166 3.66828C10.9968 3.33334 11.7756 3.33334 13.3333 3.33334C14.891 3.33334 15.6698 3.33334 16.25 3.66828C16.63 3.8877 16.9456 4.20329 17.165 4.58334C17.5 5.16347 17.5 5.94232 17.5 7.50001V12.5C17.5 14.0577 17.5 14.8365 17.165 15.4167C16.9456 15.7968 16.63 16.1123 16.25 16.3318C15.6698 16.6667 14.891 16.6667 13.3333 16.6667C11.7756 16.6667 10.9968 16.6667 10.4166 16.3318C10.0365 16.1123 9.72096 15.7968 9.50154 15.4167C9.16663 14.8365 9.16663 14.0577 9.16663 12.5Z" stroke="#02022C" stroke-width="1.2" stroke-linecap="round" stroke-linejoin="round"/>
<path d="M5.83337 5V15" stroke="#02022C" stroke-width="1.2" stroke-linecap="round" stroke-linejoin="round"/>
<path d="M2.5 6.66666V13.3333" stroke="#02022C" stroke-width="1.2" stroke-linecap="round" stroke-linejoin="round"/>
</svg>
