<svg width="20" height="20" viewBox="0 0 20 20" fill="none" xmlns="http://www.w3.org/2000/svg">
<path d="M14.1666 5.83329V9.16663C14.1666 11.4678 12.3011 13.3333 9.99992 13.3333C7.69874 13.3333 5.83325 11.4678 5.83325 9.16663V5.83329C5.83325 3.53211 7.69874 1.66663 9.99992 1.66663C12.3011 1.66663 14.1666 3.53211 14.1666 5.83329Z" stroke="#141B34" stroke-width="1.25"/>
<path d="M14.1667 5.83337H11.6667M14.1667 9.16671H11.6667" stroke="#141B34" stroke-width="1.25" stroke-linecap="round"/>
<path d="M16.6666 9.16663C16.6666 12.8485 13.6818 15.8333 9.99992 15.8333M9.99992 15.8333C6.31802 15.8333 3.33325 12.8485 3.33325 9.16663M9.99992 15.8333V18.3333M9.99992 18.3333H12.4999M9.99992 18.3333H7.49992" stroke="#141B34" stroke-width="1.25" stroke-linecap="round"/>
</svg>
