<svg width="20" height="20" viewBox="0 0 20 20" fill="none" xmlns="http://www.w3.org/2000/svg">
<path d="M12.9167 9.99998C12.9167 11.6108 11.6109 12.9166 10 12.9166C8.38921 12.9166 7.08337 11.6108 7.08337 9.99998C7.08337 8.38915 8.38921 7.08331 10 7.08331C11.6109 7.08331 12.9167 8.38915 12.9167 9.99998Z" stroke="#02022C" stroke-width="1.2"/>
<path d="M17.3255 7.62667C17.9974 8.78483 18.3333 9.36383 18.3333 10C18.3333 10.6362 17.9974 11.2152 17.3255 12.3733L15.7224 15.1365C15.0531 16.29 14.7185 16.8668 14.1682 17.1834C13.618 17.5 12.9501 17.5 11.6144 17.5H8.38554C7.04981 17.5 6.38196 17.5 5.83168 17.1834C5.28141 16.8668 4.94678 16.29 4.27755 15.1365L2.67448 12.3733C2.00258 11.2152 1.66663 10.6362 1.66663 10C1.66663 9.36383 2.00258 8.78483 2.67448 7.62667L4.27755 4.86351C4.94678 3.70997 5.28141 3.1332 5.83168 2.8166C6.38196 2.5 7.04981 2.5 8.38554 2.5H11.6144C12.9501 2.5 13.618 2.5 14.1682 2.8166C14.7185 3.1332 15.0531 3.70997 15.7224 4.86352L17.3255 7.62667Z" stroke="#02022C" stroke-width="1.2"/>
</svg>
