<svg width="23" height="23" viewBox="0 0 23 23" fill="none" xmlns="http://www.w3.org/2000/svg">
<path d="M4.69675 0.206341C4.5638 0.339296 4.35698 0.442705 4.25357 0.442705C4.13539 0.442705 3.95812 0.575659 3.83993 0.738159C3.72175 0.90066 3.52971 1.03361 3.39675 1.03361C3.2638 1.03361 3.07175 1.16657 2.95357 1.32907C2.83539 1.49157 2.62857 1.62452 2.48084 1.62452C2.33312 1.62452 2.21493 1.68361 2.21493 1.77225C2.21493 1.84611 2.09675 1.91998 1.94903 1.91998C1.8013 1.91998 1.59448 2.05293 1.4763 2.21543C1.35812 2.37793 1.16607 2.51089 1.06266 2.51089C0.94448 2.51089 0.663798 2.7177 0.427435 2.96884L-0.0157471 3.44157L0.0285711 9.52793C0.0728893 14.9791 0.102435 15.6291 0.324026 15.8507C0.45698 15.9836 0.649026 16.1018 0.737662 16.1018C0.841071 16.1018 1.10698 16.2938 1.32857 16.545C1.55016 16.7813 1.83084 16.9882 1.94903 16.9882C2.05243 16.9882 2.24448 17.1211 2.36266 17.2836C2.48084 17.4461 2.67289 17.5791 2.80584 17.5791C2.9388 17.5791 3.13084 17.712 3.24903 17.8745C3.36721 18.037 3.55925 18.17 3.66266 18.17C3.78084 18.17 4.06153 18.362 4.28312 18.6132C4.50471 18.8495 4.78539 19.0563 4.90357 19.0563C5.00698 19.0563 5.19903 19.1893 5.31721 19.3518C5.43539 19.5143 5.62743 19.6472 5.73084 19.6472C5.84903 19.6472 6.12971 19.8393 6.3513 20.0904C6.57289 20.3268 6.85357 20.5336 6.97175 20.5336C7.07516 20.5336 7.26721 20.6666 7.38539 20.8291C7.50357 20.9916 7.69562 21.1245 7.82857 21.1245C7.96153 21.1245 8.15357 21.2575 8.27175 21.42C8.38993 21.5825 8.58198 21.7154 8.68539 21.7154C8.80357 21.7154 9.08425 21.9222 9.33539 22.1882C9.74903 22.6313 9.82289 22.6461 10.9604 22.6609C11.8024 22.6757 12.1865 22.6166 12.2161 22.4836C12.2604 22.395 12.3786 22.3063 12.5115 22.3063C12.6297 22.3063 12.9252 22.0995 13.1468 21.8632C13.3683 21.612 13.649 21.42 13.7672 21.42C13.8706 21.42 14.0627 21.287 14.1808 21.1245C14.299 20.962 14.4911 20.8291 14.5945 20.8291C14.7127 20.8291 14.9933 20.6222 15.2149 20.3859C15.4365 20.1347 15.7172 19.9427 15.8354 19.9427C15.9388 19.9427 16.1308 19.8097 16.249 19.6472C16.3672 19.4847 16.5593 19.3518 16.6922 19.3518C16.8252 19.3518 17.0172 19.2188 17.1354 19.0563C17.2536 18.8938 17.4456 18.7609 17.549 18.7609C17.6672 18.7609 17.9479 18.5541 18.1695 18.3177C18.3911 18.0666 18.6718 17.8745 18.7899 17.8745C18.8933 17.8745 19.0854 17.7416 19.2036 17.5791C19.3218 17.4166 19.5138 17.2836 19.6172 17.2836C19.7354 17.2836 20.0161 17.0768 20.2377 16.8404C20.4593 16.5893 20.7252 16.3972 20.8138 16.3972C20.9172 16.3972 21.2127 16.1609 21.4933 15.8802L22.0104 15.3779V9.3802C22.0104 5.49498 21.9661 3.39725 21.8627 3.39725C21.7888 3.39725 21.7149 3.2643 21.7149 3.1018C21.7149 2.90975 21.6115 2.80634 21.4195 2.80634C21.257 2.80634 21.124 2.73248 21.124 2.65861C21.124 2.56998 21.0058 2.51089 20.8581 2.51089C20.7104 2.51089 20.5036 2.37793 20.3854 2.21543C20.2672 2.05293 20.0752 1.91998 19.9422 1.91998C19.8093 1.91998 19.6172 1.78702 19.499 1.62452C19.3808 1.46202 19.1888 1.32907 19.0558 1.32907C18.9229 1.32907 18.7308 1.19611 18.6127 1.03361C18.4945 0.871113 18.2877 0.738159 18.1399 0.738159C17.9922 0.738159 17.874 0.664295 17.874 0.590431C17.874 0.501795 17.7706 0.442705 17.6377 0.442705C17.5195 0.442705 17.2979 0.339296 17.1649 0.206341C16.9729 0.0142956 16.7218 -0.0152493 15.8649 0.029068C14.8899 0.0881596 14.7422 0.147249 14.3433 0.560886C14.107 0.826796 13.8263 1.03361 13.7081 1.03361C13.6047 1.03361 13.4127 1.16657 13.2945 1.32907C13.1763 1.49157 12.9843 1.62452 12.8808 1.62452C12.7627 1.62452 12.482 1.81657 12.2604 2.06771C12.0388 2.30407 11.7433 2.51089 11.6104 2.51089C11.4774 2.51089 11.374 2.56998 11.374 2.65861C11.374 2.92452 10.5615 2.82111 10.3399 2.51089C10.2218 2.34839 10.0297 2.21543 9.89675 2.21543C9.7638 2.21543 9.57175 2.08248 9.45357 1.91998C9.33539 1.75748 9.14334 1.62452 9.03994 1.62452C8.92175 1.62452 8.64107 1.41771 8.41948 1.18134C8.19789 0.930204 7.91721 0.738159 7.82857 0.738159C7.72516 0.738159 7.51834 0.590431 7.37062 0.413158C6.98653 -0.0152493 5.06607 -0.162977 4.69675 0.206341ZM6.05584 2.06771C6.05584 2.14157 6.17403 2.21543 6.32175 2.21543C6.46948 2.21543 6.6763 2.34839 6.79448 2.51089C6.91266 2.67339 7.10471 2.80634 7.23766 2.80634C7.37062 2.80634 7.56266 2.93929 7.68084 3.1018C7.79903 3.2643 7.99107 3.39725 8.12403 3.39725C8.25698 3.39725 8.44903 3.5302 8.56721 3.69271C8.68539 3.8552 8.87743 3.98816 8.98084 3.98816C9.09903 3.98816 9.37971 4.1802 9.6013 4.43134C9.97062 4.8302 10.1036 4.87452 10.9604 4.87452C11.7286 4.87452 11.9354 4.81543 12.1127 4.57907C12.2308 4.41657 12.4229 4.28361 12.5558 4.28361C12.6888 4.28361 12.8808 4.15066 12.999 3.98816C13.1172 3.82566 13.3093 3.69271 13.4422 3.69271C13.5752 3.69271 13.7672 3.55975 13.8854 3.39725C14.0036 3.23475 14.1956 3.1018 14.299 3.1018C14.4172 3.1018 14.6979 2.89498 14.9195 2.65861C15.1411 2.40748 15.4365 2.21543 15.5695 2.21543C15.7024 2.21543 15.8058 2.14157 15.8058 2.06771C15.8058 1.97907 15.9388 1.91998 16.1013 1.91998C16.2638 1.91998 16.3968 1.97907 16.3968 2.06771C16.3968 2.14157 16.5149 2.21543 16.6627 2.21543C16.8104 2.21543 17.0172 2.34839 17.1354 2.51089C17.2536 2.67339 17.4604 2.80634 17.6081 2.80634C17.7558 2.80634 17.874 2.86543 17.874 2.95407C17.874 3.02793 17.9922 3.1018 18.1399 3.1018C18.2877 3.1018 18.4945 3.23475 18.6127 3.39725C18.7308 3.55975 18.9229 3.69271 19.0558 3.69271C19.1888 3.69271 19.3808 3.82566 19.499 3.98816C19.6172 4.15066 19.824 4.28361 19.9718 4.28361C20.1933 4.28361 20.2377 4.41657 20.2377 5.16998C20.2377 6.11543 20.1343 6.23361 19.7945 5.76089C19.6763 5.59839 19.4843 5.46543 19.3513 5.46543C19.2183 5.46543 19.0263 5.33248 18.9081 5.16998C18.7899 5.00748 18.5831 4.87452 18.4354 4.87452C18.2877 4.87452 18.1695 4.80066 18.1695 4.7268C18.1695 4.63816 18.0513 4.57907 17.9036 4.57907C17.7558 4.57907 17.549 4.44611 17.4308 4.28361C17.2536 4.03248 17.0468 3.98816 16.1013 3.98816C15.1558 3.98816 14.949 4.03248 14.7718 4.28361C14.6536 4.44611 14.4615 4.57907 14.3286 4.57907C14.1956 4.57907 14.0036 4.71202 13.8854 4.87452C13.7672 5.03702 13.5752 5.16998 13.4718 5.16998C13.3536 5.16998 13.0729 5.36202 12.8513 5.61316C12.6297 5.84952 12.349 6.05634 12.2308 6.05634C12.1274 6.05634 11.9354 6.18929 11.8172 6.3518C11.699 6.5143 11.4922 6.64725 11.3593 6.64725C11.2115 6.64725 11.0786 6.73589 11.0343 6.82452C10.9899 6.95748 10.8718 6.91316 10.6797 6.6768C10.5172 6.49952 10.2808 6.3518 10.1774 6.3518C10.0593 6.3518 9.86721 6.21884 9.74903 6.05634C9.63084 5.89384 9.4388 5.76089 9.30584 5.76089C9.17289 5.76089 8.98084 5.62793 8.86266 5.46543C8.74448 5.30293 8.55243 5.16998 8.44903 5.16998C8.33084 5.16998 8.05016 4.96316 7.82857 4.7268C7.60698 4.47566 7.31153 4.28361 7.17857 4.28361C7.04562 4.28361 6.94221 4.20975 6.94221 4.13589C6.94221 4.04725 6.45471 3.98816 5.78993 3.98816C4.81493 3.98816 4.60812 4.03248 4.43084 4.28361C4.31266 4.44611 4.12062 4.57907 3.98766 4.57907C3.85471 4.57907 3.66266 4.71202 3.54448 4.87452C3.4263 5.03702 3.23425 5.16998 3.1013 5.16998C2.96834 5.16998 2.7763 5.30293 2.65812 5.46543C2.53993 5.62793 2.33312 5.76089 2.18539 5.76089C2.03766 5.76089 1.91948 5.81998 1.91948 5.90861C1.91948 5.98248 1.86039 6.05634 1.77175 6.05634C1.69789 6.05634 1.62403 5.76089 1.62403 5.39157C1.62403 4.87452 1.71266 4.62339 1.99334 4.35748C2.18539 4.15066 2.43653 3.98816 2.53993 3.98816C2.65812 3.98816 2.83539 3.8552 2.95357 3.69271C3.07175 3.5302 3.2638 3.39725 3.39675 3.39725C3.52971 3.39725 3.72175 3.2643 3.83993 3.1018C3.95812 2.93929 4.15016 2.80634 4.28312 2.80634C4.41607 2.80634 4.60812 2.67339 4.7263 2.51089C4.84448 2.34839 5.0513 2.21543 5.19903 2.21543C5.34675 2.21543 5.46493 2.14157 5.46493 2.06771C5.46493 1.97907 5.59789 1.91998 5.76039 1.91998C5.92289 1.91998 6.05584 1.97907 6.05584 2.06771ZM6.20357 6.05634C6.32175 6.21884 6.5138 6.3518 6.64675 6.3518C6.77971 6.3518 6.97175 6.48475 7.08993 6.64725C7.20812 6.80975 7.40016 6.9427 7.53312 6.9427C7.66607 6.9427 7.85812 7.07566 7.9763 7.23816C8.09448 7.40066 8.28653 7.53361 8.38993 7.53361C8.50812 7.53361 8.7888 7.72566 9.01039 7.9768C9.23198 8.21316 9.52743 8.41998 9.66039 8.41998C9.79334 8.41998 9.89675 8.47907 9.89675 8.5677C9.89675 8.65634 10.3695 8.71543 11.0195 8.71543C12.0831 8.71543 12.1718 8.68589 12.5558 8.27225C12.7774 8.02111 13.0581 7.82907 13.1763 7.82907C13.2797 7.82907 13.4718 7.69611 13.5899 7.53361C13.7081 7.37111 13.9002 7.23816 14.0036 7.23816C14.1218 7.23816 14.4024 7.04611 14.624 6.79498C14.8456 6.54384 15.1263 6.3518 15.2445 6.3518C15.3479 6.3518 15.5399 6.21884 15.6581 6.05634C15.7763 5.89384 15.9683 5.76089 16.1013 5.76089C16.2343 5.76089 16.4263 5.89384 16.5445 6.05634C16.6627 6.21884 16.8547 6.3518 16.9877 6.3518C17.1206 6.3518 17.3127 6.48475 17.4308 6.64725C17.549 6.80975 17.7558 6.9427 17.9036 6.9427C18.0513 6.9427 18.1695 7.00179 18.1695 7.09043C18.1695 7.1643 18.2877 7.23816 18.4354 7.23816C18.5831 7.23816 18.7899 7.37111 18.9081 7.53361C19.0263 7.69611 19.2036 7.82907 19.3218 7.82907C19.4252 7.82907 19.6763 7.99157 19.8683 8.19839C20.1786 8.49384 20.2377 8.70066 20.2377 9.45407C20.2377 10.2075 20.1786 10.4143 19.8683 10.7097C19.6763 10.9166 19.4252 11.0791 19.3218 11.0791C19.2036 11.0791 19.0263 11.212 18.9081 11.3745C18.7899 11.537 18.5979 11.67 18.4945 11.67C18.3763 11.67 18.0956 11.862 17.874 12.1132C17.6524 12.3495 17.3718 12.5563 17.2536 12.5563C17.1502 12.5563 16.9581 12.6893 16.8399 12.8518C16.7218 13.0143 16.5297 13.1472 16.4263 13.1472C16.3081 13.1472 16.0274 13.3393 15.8058 13.5904C15.5843 13.8268 15.3036 14.0336 15.1854 14.0336C15.082 14.0336 14.8899 14.1666 14.7718 14.3291C14.6536 14.4916 14.4615 14.6245 14.3286 14.6245C14.1956 14.6245 14.0036 14.7575 13.8854 14.92C13.7672 15.0825 13.5752 15.2154 13.4718 15.2154C13.3536 15.2154 13.0729 15.4075 12.8513 15.6586C12.6297 15.9097 12.349 16.1018 12.2308 16.1018C12.1274 16.1018 11.9354 16.2347 11.8172 16.3972C11.699 16.5597 11.4922 16.6927 11.3593 16.6927C11.2115 16.6927 11.0786 16.7813 11.0343 16.87C10.9899 17.0029 10.8718 16.9586 10.6797 16.737C10.5172 16.545 10.2808 16.3972 10.1774 16.3972C10.0593 16.3972 9.86721 16.2643 9.74903 16.1018C9.63084 15.9393 9.4388 15.8063 9.33539 15.8063C9.21721 15.8063 8.93653 15.6143 8.71493 15.3632C8.49334 15.1268 8.21266 14.92 8.09448 14.92C7.99107 14.92 7.79903 14.787 7.68084 14.6245C7.56266 14.462 7.37062 14.3291 7.26721 14.3291C7.14903 14.3291 6.86834 14.1222 6.64675 13.8859C6.42516 13.6347 6.14448 13.4427 6.0263 13.4427C5.92289 13.4427 5.73084 13.3097 5.61266 13.1472C5.49448 12.9847 5.30243 12.8518 5.16948 12.8518C5.03653 12.8518 4.84448 12.7188 4.7263 12.5563C4.60812 12.3938 4.41607 12.2609 4.31266 12.2609C4.19448 12.2609 3.9138 12.0541 3.69221 11.8177C3.47062 11.5666 3.18993 11.3745 3.07175 11.3745C2.96834 11.3745 2.7763 11.2416 2.65812 11.0791C2.53993 10.9166 2.36266 10.7836 2.24448 10.7836C1.81607 10.7836 1.62403 10.37 1.62403 9.45407C1.62403 8.53816 1.81607 8.12452 2.24448 8.12452C2.36266 8.12452 2.53993 7.99157 2.65812 7.82907C2.7763 7.66657 2.96834 7.53361 3.1013 7.53361C3.23425 7.53361 3.4263 7.40066 3.54448 7.23816C3.66266 7.07566 3.85471 6.9427 3.98766 6.9427C4.12062 6.9427 4.31266 6.80975 4.43084 6.64725C4.54903 6.48475 4.74107 6.3518 4.87403 6.3518C5.00698 6.3518 5.19903 6.21884 5.31721 6.05634C5.43539 5.89384 5.62743 5.76089 5.76039 5.76089C5.89334 5.76089 6.08539 5.89384 6.20357 6.05634ZM2.06721 13.1472C2.18539 13.3097 2.37743 13.4427 2.51039 13.4427C2.64334 13.4427 2.83539 13.5757 2.95357 13.7382C3.07175 13.9007 3.2638 14.0336 3.36721 14.0336C3.48539 14.0336 3.76607 14.2257 3.98766 14.4768C4.20925 14.7132 4.48993 14.92 4.60812 14.92C4.71153 14.92 4.90357 15.0529 5.02175 15.2154C5.13993 15.3779 5.33198 15.5109 5.46493 15.5109C5.59789 15.5109 5.78993 15.6438 5.90812 15.8063C6.0263 15.9688 6.21834 16.1018 6.32175 16.1018C6.43993 16.1018 6.72062 16.2938 6.94221 16.545C7.1638 16.7813 7.44448 16.9882 7.56266 16.9882C7.66607 16.9882 7.85812 17.1211 7.9763 17.2836C8.09448 17.4461 8.28653 17.5791 8.38993 17.5791C8.50812 17.5791 8.7888 17.7711 9.01039 18.0222C9.23198 18.2586 9.52743 18.4654 9.66039 18.4654C9.79334 18.4654 9.89675 18.5245 9.89675 18.6132C9.89675 18.7018 10.3695 18.7609 11.0195 18.7609C12.0831 18.7609 12.1718 18.7313 12.5558 18.3177C12.7774 18.0666 13.0581 17.8745 13.1763 17.8745C13.2797 17.8745 13.4718 17.7416 13.5899 17.5791C13.7081 17.4166 13.9002 17.2836 14.0331 17.2836C14.1661 17.2836 14.3581 17.1507 14.4763 16.9882C14.5945 16.8257 14.7865 16.6927 14.8899 16.6927C15.0081 16.6927 15.2888 16.5007 15.5104 16.2495C15.732 16.0132 16.0127 15.8063 16.1308 15.8063C16.2343 15.8063 16.4263 15.6734 16.5445 15.5109C16.6627 15.3484 16.8547 15.2154 16.9581 15.2154C17.0763 15.2154 17.357 15.0086 17.5786 14.7722C17.8002 14.5211 18.0808 14.3291 18.199 14.3291C18.3024 14.3291 18.4945 14.1961 18.6127 14.0336C18.7308 13.8711 18.9229 13.7382 19.0263 13.7382C19.1445 13.7382 19.4252 13.5461 19.6468 13.295C19.8683 13.0586 20.1047 12.8518 20.149 12.8518C20.1933 12.8518 20.2377 13.2507 20.2377 13.7382C20.2377 14.4916 20.1933 14.6245 19.9718 14.6245C19.824 14.6245 19.6172 14.7575 19.499 14.92C19.3808 15.0825 19.1888 15.2154 19.0558 15.2154C18.9229 15.2154 18.7308 15.3484 18.6127 15.5109C18.4945 15.6734 18.3024 15.8063 18.199 15.8063C18.0808 15.8063 17.8002 15.9984 17.5786 16.2495C17.357 16.4859 17.0763 16.6927 16.9581 16.6927C16.8547 16.6927 16.6627 16.8257 16.5445 16.9882C16.4263 17.1507 16.2343 17.2836 16.1308 17.2836C16.0127 17.2836 15.732 17.4757 15.5104 17.7268C15.2888 17.9632 15.0081 18.17 14.8899 18.17C14.7865 18.17 14.5945 18.3029 14.4763 18.4654C14.3581 18.6279 14.1661 18.7609 14.0627 18.7609C13.9445 18.7609 13.6638 18.9529 13.4422 19.2041C13.2206 19.4404 12.9399 19.6472 12.8218 19.6472C12.7183 19.6472 12.5263 19.7802 12.4081 19.9427C12.2899 20.1052 12.0979 20.2382 11.9649 20.2382C11.832 20.2382 11.6399 20.3711 11.5218 20.5336C11.3002 20.8438 10.7831 20.9472 10.7831 20.6813C10.7831 20.5927 10.6649 20.5336 10.5172 20.5336C10.3695 20.5336 10.1627 20.4007 10.0445 20.2382C9.9263 20.0757 9.73425 19.9427 9.63084 19.9427C9.51266 19.9427 9.23198 19.7359 9.01039 19.4995C8.7888 19.2484 8.50812 19.0563 8.38993 19.0563C8.28653 19.0563 8.09448 18.9234 7.9763 18.7609C7.85812 18.5984 7.66607 18.4654 7.53312 18.4654C7.40016 18.4654 7.20812 18.3325 7.08993 18.17C6.97175 18.0075 6.77971 17.8745 6.6763 17.8745C6.55812 17.8745 6.27743 17.6677 6.05584 17.4313C5.83425 17.1802 5.55357 16.9882 5.43539 16.9882C5.33198 16.9882 5.13993 16.8552 5.02175 16.6927C4.90357 16.5302 4.71153 16.3972 4.60812 16.3972C4.48993 16.3972 4.20925 16.1904 3.98766 15.9541C3.76607 15.7029 3.48539 15.5109 3.36721 15.5109C3.2638 15.5109 3.07175 15.3779 2.95357 15.2154C2.83539 15.0529 2.65812 14.92 2.53993 14.92C2.43653 14.92 2.18539 14.7575 1.99334 14.5507C1.71266 14.2847 1.62403 14.0336 1.62403 13.5166C1.62403 12.7927 1.74221 12.6893 2.06721 13.1472Z" fill="#02022C"/>
</svg>
