<svg width="15" height="15" viewBox="0 0 15 15" fill="none" xmlns="http://www.w3.org/2000/svg">
<path d="M5.95682 9.66667C5.8973 9.43596 5.77705 9.22541 5.60857 9.05693C5.44009 8.88844 5.22953 8.76819 4.99882 8.70867L0.908821 7.654C0.839041 7.6342 0.777627 7.59217 0.733896 7.5343C0.690165 7.47643 0.666504 7.40587 0.666504 7.33334C0.666504 7.2608 0.690165 7.19024 0.733896 7.13237C0.777627 7.0745 0.839041 7.03248 0.908821 7.01267L4.99882 5.95734C5.22945 5.89787 5.43995 5.77772 5.60842 5.60936C5.7769 5.44101 5.8972 5.23059 5.95682 5L7.01149 0.910003C7.03109 0.839949 7.07308 0.778231 7.13103 0.734266C7.18899 0.690302 7.25974 0.666504 7.33249 0.666504C7.40523 0.666504 7.47598 0.690302 7.53394 0.734266C7.5919 0.778231 7.63388 0.839949 7.65349 0.910003L8.70749 5C8.76701 5.23072 8.88726 5.44127 9.05574 5.60975C9.22422 5.77823 9.43477 5.89849 9.66549 5.958L13.7555 7.012C13.8258 7.0314 13.8878 7.07334 13.932 7.13139C13.9762 7.18943 14.0002 7.26038 14.0002 7.33334C14.0002 7.4063 13.9762 7.47724 13.932 7.53529C13.8878 7.59333 13.8258 7.63527 13.7555 7.65467L9.66549 8.70867C9.43477 8.76819 9.22422 8.88844 9.05574 9.05693C8.88726 9.22541 8.76701 9.43596 8.70749 9.66667L7.65282 13.7567C7.63322 13.8267 7.59123 13.8884 7.53327 13.9324C7.47532 13.9764 7.40457 14.0002 7.33182 14.0002C7.25907 14.0002 7.18833 13.9764 7.13037 13.9324C7.07241 13.8884 7.03043 13.8267 7.01082 13.7567L5.95682 9.66667Z" stroke="white" stroke-width="1.33333" stroke-linecap="round" stroke-linejoin="round"/>
</svg>
